<?xml version="1.0" encoding="utf-8" standalone="no"?>
<!DOCTYPE svg PUBLIC "-//W3C//DTD SVG 1.1//EN"
  "http://www.w3.org/Graphics/SVG/1.1/DTD/svg11.dtd">
<svg xmlns:xlink="http://www.w3.org/1999/xlink" width="522.395188pt" height="371.79075pt" viewBox="0 0 522.395188 371.79075" xmlns="http://www.w3.org/2000/svg" version="1.1">
 <metadata>
  <rdf:RDF xmlns:dc="http://purl.org/dc/elements/1.1/" xmlns:cc="http://creativecommons.org/ns#" xmlns:rdf="http://www.w3.org/1999/02/22-rdf-syntax-ns#">
   <cc:Work>
    <dc:type rdf:resource="http://purl.org/dc/dcmitype/StillImage"/>
    <dc:date>2026-03-18T00:32:16.005216</dc:date>
    <dc:format>image/svg+xml</dc:format>
    <dc:creator>
     <cc:Agent>
      <dc:title>Matplotlib v3.10.0, https://matplotlib.org/</dc:title>
     </cc:Agent>
    </dc:creator>
   </cc:Work>
  </rdf:RDF>
 </metadata>
 <defs>
  <style type="text/css">*{stroke-linejoin: round; stroke-linecap: butt}</style>
 </defs>
 <g id="figure_1">
  <g id="patch_1">
   <path d="M 0 371.79075 
L 522.395188 371.79075 
L 522.395188 0 
L 0 0 
z
" style="fill: #ffffff"/>
  </g>
  <g id="axes_1">
   <g id="patch_2">
    <path d="M 32.363188 279.63075 
L 520.955188 279.63075 
L 520.955188 13.51875 
L 32.363188 13.51875 
z
" style="fill: #ffffff"/>
   </g>
   <g id="matplotlib.axis_1">
    <g id="xtick_1">
     <g id="line2d_1">
      <defs>
       <path id="m25f078fd51" d="M 0 0 
L 0 3 
" style="stroke: #243240; stroke-width: 0.8"/>
      </defs>
      <g>
       <use xlink:href="#m25f078fd51" x="69.488224" y="279.63075" style="fill: #243240; stroke: #243240; stroke-width: 0.8"/>
      </g>
     </g>
     <g id="text_1">
      <text style="font-size: 7px; font-family: 'DejaVu Sans', 'Arial', 'Helvetica'; fill: #243240" transform="translate(34.024366 318.783615) rotate(-45)">WT (fliC-ON</text>
      <text style="font-size: 7px; font-family: 'DejaVu Sans', 'Arial', 'Helvetica'; fill: #243240" transform="translate(37.253767 326.639483) rotate(-45)">background)</text>
     </g>
    </g>
    <g id="xtick_2">
     <g id="line2d_2">
      <g>
       <use xlink:href="#m25f078fd51" x="152.356609" y="279.63075" style="fill: #243240; stroke: #243240; stroke-width: 0.8"/>
      </g>
     </g>
     <g id="text_2">
      <text style="font-size: 7px; font-family: 'DejaVu Sans', 'Arial', 'Helvetica'; fill: #243240" transform="translate(134.494208 306.724793) rotate(-45)">∆flhDC</text>
     </g>
    </g>
    <g id="xtick_3">
     <g id="line2d_3">
      <g>
       <use xlink:href="#m25f078fd51" x="235.224995" y="279.63075" style="fill: #243240; stroke: #243240; stroke-width: 0.8"/>
      </g>
     </g>
     <g id="text_3">
      <text style="font-size: 7px; font-family: 'DejaVu Sans', 'Arial', 'Helvetica'; fill: #243240" transform="translate(221.49718 302.590207) rotate(-45)">∆flgE</text>
     </g>
    </g>
    <g id="xtick_4">
     <g id="line2d_4">
      <g>
       <use xlink:href="#m25f078fd51" x="318.09338" y="279.63075" style="fill: #243240; stroke: #243240; stroke-width: 0.8"/>
      </g>
     </g>
     <g id="text_4">
      <text style="font-size: 7px; font-family: 'DejaVu Sans', 'Arial', 'Helvetica'; fill: #243240" transform="translate(301.489298 305.466474) rotate(-45)">∆flgKL</text>
     </g>
    </g>
    <g id="xtick_5">
     <g id="line2d_5">
      <g>
       <use xlink:href="#m25f078fd51" x="400.961766" y="279.63075" style="fill: #243240; stroke: #243240; stroke-width: 0.8"/>
      </g>
     </g>
     <g id="text_5">
      <text style="font-size: 7px; font-family: 'DejaVu Sans', 'Arial', 'Helvetica'; fill: #243240" transform="translate(369.070697 320.75346) rotate(-45)">motB(D33N)</text>
     </g>
    </g>
    <g id="xtick_6">
     <g id="line2d_6">
      <g>
       <use xlink:href="#m25f078fd51" x="483.830151" y="279.63075" style="fill: #243240; stroke: #243240; stroke-width: 0.8"/>
      </g>
     </g>
     <g id="text_6">
      <text style="font-size: 7px; font-family: 'DejaVu Sans', 'Arial', 'Helvetica'; fill: #243240" transform="translate(451.71325 320.979292) rotate(-45)">∆flgM flhA∆c</text>
     </g>
    </g>
    <g id="text_7">
     <text style="font-size: 9.6px; font-family: 'DejaVu Sans', 'Arial', 'Helvetica'; text-anchor: middle; fill: #243240" x="276.659188" y="338.963376" transform="rotate(-0 276.659188 338.963376)">Strain</text>
    </g>
   </g>
   <g id="matplotlib.axis_2">
    <g id="ytick_1">
     <g id="line2d_7">
      <path d="M 32.363188 278.887509 
L 520.955188 278.887509 
" clip-path="url(#p39900bc09d)" style="fill: none; stroke: #d8e0e8; stroke-opacity: 0.8; stroke-width: 0.7; stroke-linecap: round"/>
     </g>
     <g id="line2d_8">
      <defs>
       <path id="md1f7c94249" d="M 0 0 
L -3 0 
" style="stroke: #243240; stroke-width: 0.8"/>
      </defs>
      <g>
       <use xlink:href="#md1f7c94249" x="32.363188" y="278.887509" style="fill: #243240; stroke: #243240; stroke-width: 0.8"/>
      </g>
     </g>
     <g id="text_8">
      <text style="font-size: 7px; font-family: 'DejaVu Sans', 'Arial', 'Helvetica'; text-anchor: end; fill: #243240" x="25.863188" y="281.546962" transform="rotate(-0 25.863188 281.546962)">1.3</text>
     </g>
    </g>
    <g id="ytick_2">
     <g id="line2d_9">
      <path d="M 32.363188 220.850137 
L 520.955188 220.850137 
" clip-path="url(#p39900bc09d)" style="fill: none; stroke: #d8e0e8; stroke-opacity: 0.8; stroke-width: 0.7; stroke-linecap: round"/>
     </g>
     <g id="line2d_10">
      <g>
       <use xlink:href="#md1f7c94249" x="32.363188" y="220.850137" style="fill: #243240; stroke: #243240; stroke-width: 0.8"/>
      </g>
     </g>
     <g id="text_9">
      <text style="font-size: 7px; font-family: 'DejaVu Sans', 'Arial', 'Helvetica'; text-anchor: end; fill: #243240" x="25.863188" y="223.50959" transform="rotate(-0 25.863188 223.50959)">1.4</text>
     </g>
    </g>
    <g id="ytick_3">
     <g id="line2d_11">
      <path d="M 32.363188 162.812765 
L 520.955188 162.812765 
" clip-path="url(#p39900bc09d)" style="fill: none; stroke: #d8e0e8; stroke-opacity: 0.8; stroke-width: 0.7; stroke-linecap: round"/>
     </g>
     <g id="line2d_12">
      <g>
       <use xlink:href="#md1f7c94249" x="32.363188" y="162.812765" style="fill: #243240; stroke: #243240; stroke-width: 0.8"/>
      </g>
     </g>
     <g id="text_10">
      <text style="font-size: 7px; font-family: 'DejaVu Sans', 'Arial', 'Helvetica'; text-anchor: end; fill: #243240" x="25.863188" y="165.472219" transform="rotate(-0 25.863188 165.472219)">1.5</text>
     </g>
    </g>
    <g id="ytick_4">
     <g id="line2d_13">
      <path d="M 32.363188 104.775394 
L 520.955188 104.775394 
" clip-path="url(#p39900bc09d)" style="fill: none; stroke: #d8e0e8; stroke-opacity: 0.8; stroke-width: 0.7; stroke-linecap: round"/>
     </g>
     <g id="line2d_14">
      <g>
       <use xlink:href="#md1f7c94249" x="32.363188" y="104.775394" style="fill: #243240; stroke: #243240; stroke-width: 0.8"/>
      </g>
     </g>
     <g id="text_11">
      <text style="font-size: 7px; font-family: 'DejaVu Sans', 'Arial', 'Helvetica'; text-anchor: end; fill: #243240" x="25.863188" y="107.434847" transform="rotate(-0 25.863188 107.434847)">1.6</text>
     </g>
    </g>
    <g id="ytick_5">
     <g id="line2d_15">
      <path d="M 32.363188 46.738022 
L 520.955188 46.738022 
" clip-path="url(#p39900bc09d)" style="fill: none; stroke: #d8e0e8; stroke-opacity: 0.8; stroke-width: 0.7; stroke-linecap: round"/>
     </g>
     <g id="line2d_16">
      <g>
       <use xlink:href="#md1f7c94249" x="32.363188" y="46.738022" style="fill: #243240; stroke: #243240; stroke-width: 0.8"/>
      </g>
     </g>
     <g id="text_12">
      <text style="font-size: 7px; font-family: 'DejaVu Sans', 'Arial', 'Helvetica'; text-anchor: end; fill: #243240" x="25.863188" y="49.397475" transform="rotate(-0 25.863188 49.397475)">1.7</text>
     </g>
    </g>
    <g id="text_13">
     <text style="font-size: 9.6px; font-family: 'DejaVu Sans', 'Arial', 'Helvetica'; text-anchor: middle; fill: #243240" x="8.7345" y="146.57475" transform="rotate(-90 8.7345 146.57475)">Population growth rate, mu (1/h)</text>
    </g>
   </g>
   <g id="PathCollection_1">
    <defs>
     <path id="C0_0_268439ea0d" d="M 0 2.236068 
C 0.593012 2.236068 1.161816 2.000462 1.581139 1.581139 
C 2.000462 1.161816 2.236068 0.593012 2.236068 -0 
C 2.236068 -0.593012 2.000462 -1.161816 1.581139 -1.581139 
C 1.161816 -2.000462 0.593012 -2.236068 0 -2.236068 
C -0.593012 -2.236068 -1.161816 -2.000462 -1.581139 -1.581139 
C -2.000462 -1.161816 -2.236068 -0.593012 -2.236068 0 
C -2.236068 0.593012 -2.000462 1.161816 -1.581139 1.581139 
C -1.161816 2.000462 -0.593012 2.236068 0 2.236068 
z
"/>
    </defs>
    <g clip-path="url(#p39900bc09d)">
     <use xlink:href="#C0_0_268439ea0d" x="57.88665" y="202.923114" style="fill: #bac3cc; fill-opacity: 0.55"/>
    </g>
    <g clip-path="url(#p39900bc09d)">
     <use xlink:href="#C0_0_268439ea0d" x="59.251541" y="255.803777" style="fill: #bac3cc; fill-opacity: 0.55"/>
    </g>
    <g clip-path="url(#p39900bc09d)">
     <use xlink:href="#C0_0_268439ea0d" x="60.616432" y="140.059093" style="fill: #bac3cc; fill-opacity: 0.55"/>
    </g>
    <g clip-path="url(#p39900bc09d)">
     <use xlink:href="#C0_0_268439ea0d" x="61.981323" y="214.53775" style="fill: #bac3cc; fill-opacity: 0.55"/>
    </g>
    <g clip-path="url(#p39900bc09d)">
     <use xlink:href="#C0_0_268439ea0d" x="63.346214" y="240.397475" style="fill: #bac3cc; fill-opacity: 0.55"/>
    </g>
    <g clip-path="url(#p39900bc09d)">
     <use xlink:href="#C0_0_268439ea0d" x="64.711105" y="185.928835" style="fill: #bac3cc; fill-opacity: 0.55"/>
    </g>
    <g clip-path="url(#p39900bc09d)">
     <use xlink:href="#C0_0_268439ea0d" x="66.075997" y="185.76387" style="fill: #bac3cc; fill-opacity: 0.55"/>
    </g>
    <g clip-path="url(#p39900bc09d)">
     <use xlink:href="#C0_0_268439ea0d" x="67.440888" y="192.929038" style="fill: #bac3cc; fill-opacity: 0.55"/>
    </g>
    <g clip-path="url(#p39900bc09d)">
     <use xlink:href="#C0_0_268439ea0d" x="68.805779" y="175.148024" style="fill: #bac3cc; fill-opacity: 0.55"/>
    </g>
    <g clip-path="url(#p39900bc09d)">
     <use xlink:href="#C0_0_268439ea0d" x="70.17067" y="142.483521" style="fill: #bac3cc; fill-opacity: 0.55"/>
    </g>
    <g clip-path="url(#p39900bc09d)">
     <use xlink:href="#C0_0_268439ea0d" x="71.535561" y="178.667028" style="fill: #bac3cc; fill-opacity: 0.55"/>
    </g>
    <g clip-path="url(#p39900bc09d)">
     <use xlink:href="#C0_0_268439ea0d" x="72.900452" y="213.648065" style="fill: #bac3cc; fill-opacity: 0.55"/>
    </g>
    <g clip-path="url(#p39900bc09d)">
     <use xlink:href="#C0_0_268439ea0d" x="74.265343" y="162.348032" style="fill: #bac3cc; fill-opacity: 0.55"/>
    </g>
    <g clip-path="url(#p39900bc09d)">
     <use xlink:href="#C0_0_268439ea0d" x="75.630234" y="201.834791" style="fill: #bac3cc; fill-opacity: 0.55"/>
    </g>
    <g clip-path="url(#p39900bc09d)">
     <use xlink:href="#C0_0_268439ea0d" x="76.995125" y="221.327473" style="fill: #bac3cc; fill-opacity: 0.55"/>
    </g>
    <g clip-path="url(#p39900bc09d)">
     <use xlink:href="#C0_0_268439ea0d" x="78.360016" y="180.21271" style="fill: #bac3cc; fill-opacity: 0.55"/>
    </g>
    <g clip-path="url(#p39900bc09d)">
     <use xlink:href="#C0_0_268439ea0d" x="79.724907" y="179.994032" style="fill: #bac3cc; fill-opacity: 0.55"/>
    </g>
    <g clip-path="url(#p39900bc09d)">
     <use xlink:href="#C0_0_268439ea0d" x="81.089798" y="199.20261" style="fill: #bac3cc; fill-opacity: 0.55"/>
    </g>
   </g>
   <g id="PathCollection_2">
    <defs>
     <path id="C1_0_c224575328" d="M 0 2.236068 
C 0.593012 2.236068 1.161816 2.000462 1.581139 1.581139 
C 2.000462 1.161816 2.236068 0.593012 2.236068 -0 
C 2.236068 -0.593012 2.000462 -1.161816 1.581139 -1.581139 
C 1.161816 -2.000462 0.593012 -2.236068 0 -2.236068 
C -0.593012 -2.236068 -1.161816 -2.000462 -1.581139 -1.581139 
C -2.000462 -1.161816 -2.236068 -0.593012 -2.236068 0 
C -2.236068 0.593012 -2.000462 1.161816 -1.581139 1.581139 
C -1.161816 2.000462 -0.593012 2.236068 0 2.236068 
z
"/>
    </defs>
    <g clip-path="url(#p39900bc09d)">
     <use xlink:href="#C1_0_c224575328" x="140.755036" y="102.795526" style="fill: #bac3cc; fill-opacity: 0.55"/>
    </g>
    <g clip-path="url(#p39900bc09d)">
     <use xlink:href="#C1_0_c224575328" x="142.119927" y="119.886103" style="fill: #bac3cc; fill-opacity: 0.55"/>
    </g>
    <g clip-path="url(#p39900bc09d)">
     <use xlink:href="#C1_0_c224575328" x="143.484818" y="87.612865" style="fill: #bac3cc; fill-opacity: 0.55"/>
    </g>
    <g clip-path="url(#p39900bc09d)">
     <use xlink:href="#C1_0_c224575328" x="144.849709" y="84.956519" style="fill: #bac3cc; fill-opacity: 0.55"/>
    </g>
    <g clip-path="url(#p39900bc09d)">
     <use xlink:href="#C1_0_c224575328" x="146.2146" y="63.842211" style="fill: #bac3cc; fill-opacity: 0.55"/>
    </g>
    <g clip-path="url(#p39900bc09d)">
     <use xlink:href="#C1_0_c224575328" x="147.579491" y="77.046726" style="fill: #bac3cc; fill-opacity: 0.55"/>
    </g>
    <g clip-path="url(#p39900bc09d)">
     <use xlink:href="#C1_0_c224575328" x="148.944382" y="45.099006" style="fill: #bac3cc; fill-opacity: 0.55"/>
    </g>
    <g clip-path="url(#p39900bc09d)">
     <use xlink:href="#C1_0_c224575328" x="150.309273" y="46.736023" style="fill: #bac3cc; fill-opacity: 0.55"/>
    </g>
    <g clip-path="url(#p39900bc09d)">
     <use xlink:href="#C1_0_c224575328" x="151.674164" y="30.842057" style="fill: #bac3cc; fill-opacity: 0.55"/>
    </g>
    <g clip-path="url(#p39900bc09d)">
     <use xlink:href="#C1_0_c224575328" x="153.039055" y="84.859976" style="fill: #bac3cc; fill-opacity: 0.55"/>
    </g>
    <g clip-path="url(#p39900bc09d)">
     <use xlink:href="#C1_0_c224575328" x="154.403946" y="72.173654" style="fill: #bac3cc; fill-opacity: 0.55"/>
    </g>
    <g clip-path="url(#p39900bc09d)">
     <use xlink:href="#C1_0_c224575328" x="155.768837" y="68.387496" style="fill: #bac3cc; fill-opacity: 0.55"/>
    </g>
    <g clip-path="url(#p39900bc09d)">
     <use xlink:href="#C1_0_c224575328" x="157.133728" y="47.114036" style="fill: #bac3cc; fill-opacity: 0.55"/>
    </g>
    <g clip-path="url(#p39900bc09d)">
     <use xlink:href="#C1_0_c224575328" x="158.498619" y="44.139021" style="fill: #bac3cc; fill-opacity: 0.55"/>
    </g>
    <g clip-path="url(#p39900bc09d)">
     <use xlink:href="#C1_0_c224575328" x="159.86351" y="45.027874" style="fill: #bac3cc; fill-opacity: 0.55"/>
    </g>
    <g clip-path="url(#p39900bc09d)">
     <use xlink:href="#C1_0_c224575328" x="161.228401" y="69.202821" style="fill: #bac3cc; fill-opacity: 0.55"/>
    </g>
    <g clip-path="url(#p39900bc09d)">
     <use xlink:href="#C1_0_c224575328" x="162.593292" y="72.172964" style="fill: #bac3cc; fill-opacity: 0.55"/>
    </g>
    <g clip-path="url(#p39900bc09d)">
     <use xlink:href="#C1_0_c224575328" x="163.958183" y="64.481316" style="fill: #bac3cc; fill-opacity: 0.55"/>
    </g>
   </g>
   <g id="PathCollection_3">
    <defs>
     <path id="C2_0_f952db6b0a" d="M 0 2.236068 
C 0.593012 2.236068 1.161816 2.000462 1.581139 1.581139 
C 2.000462 1.161816 2.236068 0.593012 2.236068 -0 
C 2.236068 -0.593012 2.000462 -1.161816 1.581139 -1.581139 
C 1.161816 -2.000462 0.593012 -2.236068 0 -2.236068 
C -0.593012 -2.236068 -1.161816 -2.000462 -1.581139 -1.581139 
C -2.000462 -1.161816 -2.236068 -0.593012 -2.236068 0 
C -2.236068 0.593012 -2.000462 1.161816 -1.581139 1.581139 
C -1.161816 2.000462 -0.593012 2.236068 0 2.236068 
z
"/>
    </defs>
    <g clip-path="url(#p39900bc09d)">
     <use xlink:href="#C2_0_f952db6b0a" x="223.623421" y="89.611932" style="fill: #bac3cc; fill-opacity: 0.55"/>
    </g>
    <g clip-path="url(#p39900bc09d)">
     <use xlink:href="#C2_0_f952db6b0a" x="224.988312" y="82.945238" style="fill: #bac3cc; fill-opacity: 0.55"/>
    </g>
    <g clip-path="url(#p39900bc09d)">
     <use xlink:href="#C2_0_f952db6b0a" x="226.353203" y="118.62415" style="fill: #bac3cc; fill-opacity: 0.55"/>
    </g>
    <g clip-path="url(#p39900bc09d)">
     <use xlink:href="#C2_0_f952db6b0a" x="227.718094" y="110.628632" style="fill: #bac3cc; fill-opacity: 0.55"/>
    </g>
    <g clip-path="url(#p39900bc09d)">
     <use xlink:href="#C2_0_f952db6b0a" x="229.082985" y="150.689818" style="fill: #bac3cc; fill-opacity: 0.55"/>
    </g>
    <g clip-path="url(#p39900bc09d)">
     <use xlink:href="#C2_0_f952db6b0a" x="230.447876" y="85.661761" style="fill: #bac3cc; fill-opacity: 0.55"/>
    </g>
    <g clip-path="url(#p39900bc09d)">
     <use xlink:href="#C2_0_f952db6b0a" x="231.812767" y="57.625337" style="fill: #bac3cc; fill-opacity: 0.55"/>
    </g>
    <g clip-path="url(#p39900bc09d)">
     <use xlink:href="#C2_0_f952db6b0a" x="233.177658" y="64.140349" style="fill: #bac3cc; fill-opacity: 0.55"/>
    </g>
    <g clip-path="url(#p39900bc09d)">
     <use xlink:href="#C2_0_f952db6b0a" x="234.542549" y="63.085917" style="fill: #bac3cc; fill-opacity: 0.55"/>
    </g>
    <g clip-path="url(#p39900bc09d)">
     <use xlink:href="#C2_0_f952db6b0a" x="235.90744" y="85.865226" style="fill: #bac3cc; fill-opacity: 0.55"/>
    </g>
    <g clip-path="url(#p39900bc09d)">
     <use xlink:href="#C2_0_f952db6b0a" x="237.272331" y="42.416886" style="fill: #bac3cc; fill-opacity: 0.55"/>
    </g>
    <g clip-path="url(#p39900bc09d)">
     <use xlink:href="#C2_0_f952db6b0a" x="238.637222" y="77.114045" style="fill: #bac3cc; fill-opacity: 0.55"/>
    </g>
    <g clip-path="url(#p39900bc09d)">
     <use xlink:href="#C2_0_f952db6b0a" x="240.002114" y="81.822621" style="fill: #bac3cc; fill-opacity: 0.55"/>
    </g>
    <g clip-path="url(#p39900bc09d)">
     <use xlink:href="#C2_0_f952db6b0a" x="241.367005" y="69.660012" style="fill: #bac3cc; fill-opacity: 0.55"/>
    </g>
    <g clip-path="url(#p39900bc09d)">
     <use xlink:href="#C2_0_f952db6b0a" x="242.731896" y="82.356524" style="fill: #bac3cc; fill-opacity: 0.55"/>
    </g>
    <g clip-path="url(#p39900bc09d)">
     <use xlink:href="#C2_0_f952db6b0a" x="244.096787" y="97.392414" style="fill: #bac3cc; fill-opacity: 0.55"/>
    </g>
    <g clip-path="url(#p39900bc09d)">
     <use xlink:href="#C2_0_f952db6b0a" x="245.461678" y="98.722438" style="fill: #bac3cc; fill-opacity: 0.55"/>
    </g>
    <g clip-path="url(#p39900bc09d)">
     <use xlink:href="#C2_0_f952db6b0a" x="246.826569" y="88.766206" style="fill: #bac3cc; fill-opacity: 0.55"/>
    </g>
   </g>
   <g id="PathCollection_4">
    <defs>
     <path id="C3_0_c753175bcc" d="M 0 2.236068 
C 0.593012 2.236068 1.161816 2.000462 1.581139 1.581139 
C 2.000462 1.161816 2.236068 0.593012 2.236068 -0 
C 2.236068 -0.593012 2.000462 -1.161816 1.581139 -1.581139 
C 1.161816 -2.000462 0.593012 -2.236068 0 -2.236068 
C -0.593012 -2.236068 -1.161816 -2.000462 -1.581139 -1.581139 
C -2.000462 -1.161816 -2.236068 -0.593012 -2.236068 0 
C -2.236068 0.593012 -2.000462 1.161816 -1.581139 1.581139 
C -1.161816 2.000462 -0.593012 2.236068 0 2.236068 
z
"/>
    </defs>
    <g clip-path="url(#p39900bc09d)">
     <use xlink:href="#C3_0_c753175bcc" x="306.491806" y="241.996058" style="fill: #bac3cc; fill-opacity: 0.55"/>
    </g>
    <g clip-path="url(#p39900bc09d)">
     <use xlink:href="#C3_0_c753175bcc" x="307.856697" y="210.974585" style="fill: #bac3cc; fill-opacity: 0.55"/>
    </g>
    <g clip-path="url(#p39900bc09d)">
     <use xlink:href="#C3_0_c753175bcc" x="309.221588" y="196.751801" style="fill: #bac3cc; fill-opacity: 0.55"/>
    </g>
    <g clip-path="url(#p39900bc09d)">
     <use xlink:href="#C3_0_c753175bcc" x="310.586479" y="220.388612" style="fill: #bac3cc; fill-opacity: 0.55"/>
    </g>
    <g clip-path="url(#p39900bc09d)">
     <use xlink:href="#C3_0_c753175bcc" x="311.95137" y="243.234001" style="fill: #bac3cc; fill-opacity: 0.55"/>
    </g>
    <g clip-path="url(#p39900bc09d)">
     <use xlink:href="#C3_0_c753175bcc" x="313.316261" y="246.81111" style="fill: #bac3cc; fill-opacity: 0.55"/>
    </g>
    <g clip-path="url(#p39900bc09d)">
     <use xlink:href="#C3_0_c753175bcc" x="314.681153" y="172.949482" style="fill: #bac3cc; fill-opacity: 0.55"/>
    </g>
    <g clip-path="url(#p39900bc09d)">
     <use xlink:href="#C3_0_c753175bcc" x="316.046044" y="201.063253" style="fill: #bac3cc; fill-opacity: 0.55"/>
    </g>
    <g clip-path="url(#p39900bc09d)">
     <use xlink:href="#C3_0_c753175bcc" x="317.410935" y="180.215085" style="fill: #bac3cc; fill-opacity: 0.55"/>
    </g>
    <g clip-path="url(#p39900bc09d)">
     <use xlink:href="#C3_0_c753175bcc" x="318.775826" y="220.842346" style="fill: #bac3cc; fill-opacity: 0.55"/>
    </g>
    <g clip-path="url(#p39900bc09d)">
     <use xlink:href="#C3_0_c753175bcc" x="320.140717" y="240.42031" style="fill: #bac3cc; fill-opacity: 0.55"/>
    </g>
    <g clip-path="url(#p39900bc09d)">
     <use xlink:href="#C3_0_c753175bcc" x="321.505608" y="250.898157" style="fill: #bac3cc; fill-opacity: 0.55"/>
    </g>
    <g clip-path="url(#p39900bc09d)">
     <use xlink:href="#C3_0_c753175bcc" x="322.870499" y="223.033645" style="fill: #bac3cc; fill-opacity: 0.55"/>
    </g>
    <g clip-path="url(#p39900bc09d)">
     <use xlink:href="#C3_0_c753175bcc" x="324.23539" y="225.331788" style="fill: #bac3cc; fill-opacity: 0.55"/>
    </g>
    <g clip-path="url(#p39900bc09d)">
     <use xlink:href="#C3_0_c753175bcc" x="325.600281" y="192.360096" style="fill: #bac3cc; fill-opacity: 0.55"/>
    </g>
    <g clip-path="url(#p39900bc09d)">
     <use xlink:href="#C3_0_c753175bcc" x="326.965172" y="191.47814" style="fill: #bac3cc; fill-opacity: 0.55"/>
    </g>
    <g clip-path="url(#p39900bc09d)">
     <use xlink:href="#C3_0_c753175bcc" x="328.330063" y="154.882586" style="fill: #bac3cc; fill-opacity: 0.55"/>
    </g>
    <g clip-path="url(#p39900bc09d)">
     <use xlink:href="#C3_0_c753175bcc" x="329.694954" y="210.526342" style="fill: #bac3cc; fill-opacity: 0.55"/>
    </g>
   </g>
   <g id="PathCollection_5">
    <defs>
     <path id="C4_0_d782bfd1b5" d="M 0 2.236068 
C 0.593012 2.236068 1.161816 2.000462 1.581139 1.581139 
C 2.000462 1.161816 2.236068 0.593012 2.236068 -0 
C 2.236068 -0.593012 2.000462 -1.161816 1.581139 -1.581139 
C 1.161816 -2.000462 0.593012 -2.236068 0 -2.236068 
C -0.593012 -2.236068 -1.161816 -2.000462 -1.581139 -1.581139 
C -2.000462 -1.161816 -2.236068 -0.593012 -2.236068 0 
C -2.236068 0.593012 -2.000462 1.161816 -1.581139 1.581139 
C -1.161816 2.000462 -0.593012 2.236068 0 2.236068 
z
"/>
    </defs>
    <g clip-path="url(#p39900bc09d)">
     <use xlink:href="#C4_0_d782bfd1b5" x="389.360192" y="172.96627" style="fill: #bac3cc; fill-opacity: 0.55"/>
    </g>
    <g clip-path="url(#p39900bc09d)">
     <use xlink:href="#C4_0_d782bfd1b5" x="390.725083" y="176.780602" style="fill: #bac3cc; fill-opacity: 0.55"/>
    </g>
    <g clip-path="url(#p39900bc09d)">
     <use xlink:href="#C4_0_d782bfd1b5" x="392.089974" y="164.651148" style="fill: #bac3cc; fill-opacity: 0.55"/>
    </g>
    <g clip-path="url(#p39900bc09d)">
     <use xlink:href="#C4_0_d782bfd1b5" x="393.454865" y="208.174454" style="fill: #bac3cc; fill-opacity: 0.55"/>
    </g>
    <g clip-path="url(#p39900bc09d)">
     <use xlink:href="#C4_0_d782bfd1b5" x="394.819756" y="202.675783" style="fill: #bac3cc; fill-opacity: 0.55"/>
    </g>
    <g clip-path="url(#p39900bc09d)">
     <use xlink:href="#C4_0_d782bfd1b5" x="396.184647" y="169.372158" style="fill: #bac3cc; fill-opacity: 0.55"/>
    </g>
    <g clip-path="url(#p39900bc09d)">
     <use xlink:href="#C4_0_d782bfd1b5" x="397.549538" y="120.918923" style="fill: #bac3cc; fill-opacity: 0.55"/>
    </g>
    <g clip-path="url(#p39900bc09d)">
     <use xlink:href="#C4_0_d782bfd1b5" x="398.914429" y="92.744079" style="fill: #bac3cc; fill-opacity: 0.55"/>
    </g>
    <g clip-path="url(#p39900bc09d)">
     <use xlink:href="#C4_0_d782bfd1b5" x="400.27932" y="98.156222" style="fill: #bac3cc; fill-opacity: 0.55"/>
    </g>
    <g clip-path="url(#p39900bc09d)">
     <use xlink:href="#C4_0_d782bfd1b5" x="401.644211" y="149.485562" style="fill: #bac3cc; fill-opacity: 0.55"/>
    </g>
    <g clip-path="url(#p39900bc09d)">
     <use xlink:href="#C4_0_d782bfd1b5" x="403.009102" y="195.959147" style="fill: #bac3cc; fill-opacity: 0.55"/>
    </g>
    <g clip-path="url(#p39900bc09d)">
     <use xlink:href="#C4_0_d782bfd1b5" x="404.373993" y="166.492833" style="fill: #bac3cc; fill-opacity: 0.55"/>
    </g>
    <g clip-path="url(#p39900bc09d)">
     <use xlink:href="#C4_0_d782bfd1b5" x="405.738884" y="177.443036" style="fill: #bac3cc; fill-opacity: 0.55"/>
    </g>
    <g clip-path="url(#p39900bc09d)">
     <use xlink:href="#C4_0_d782bfd1b5" x="407.103775" y="178.730963" style="fill: #bac3cc; fill-opacity: 0.55"/>
    </g>
    <g clip-path="url(#p39900bc09d)">
     <use xlink:href="#C4_0_d782bfd1b5" x="408.468666" y="178.252147" style="fill: #bac3cc; fill-opacity: 0.55"/>
    </g>
    <g clip-path="url(#p39900bc09d)">
     <use xlink:href="#C4_0_d782bfd1b5" x="409.833557" y="144.736192" style="fill: #bac3cc; fill-opacity: 0.55"/>
    </g>
    <g clip-path="url(#p39900bc09d)">
     <use xlink:href="#C4_0_d782bfd1b5" x="411.198448" y="126.401" style="fill: #bac3cc; fill-opacity: 0.55"/>
    </g>
    <g clip-path="url(#p39900bc09d)">
     <use xlink:href="#C4_0_d782bfd1b5" x="412.563339" y="151.96924" style="fill: #bac3cc; fill-opacity: 0.55"/>
    </g>
   </g>
   <g id="PathCollection_6">
    <defs>
     <path id="C5_0_0bfb6b4d10" d="M 0 2.236068 
C 0.593012 2.236068 1.161816 2.000462 1.581139 1.581139 
C 2.000462 1.161816 2.236068 0.593012 2.236068 -0 
C 2.236068 -0.593012 2.000462 -1.161816 1.581139 -1.581139 
C 1.161816 -2.000462 0.593012 -2.236068 0 -2.236068 
C -0.593012 -2.236068 -1.161816 -2.000462 -1.581139 -1.581139 
C -2.000462 -1.161816 -2.236068 -0.593012 -2.236068 0 
C -2.236068 0.593012 -2.000462 1.161816 -1.581139 1.581139 
C -1.161816 2.000462 -0.593012 2.236068 0 2.236068 
z
"/>
    </defs>
    <g clip-path="url(#p39900bc09d)">
     <use xlink:href="#C5_0_0bfb6b4d10" x="472.228577" y="222.631261" style="fill: #bac3cc; fill-opacity: 0.55"/>
    </g>
    <g clip-path="url(#p39900bc09d)">
     <use xlink:href="#C5_0_0bfb6b4d10" x="473.593468" y="238.300116" style="fill: #bac3cc; fill-opacity: 0.55"/>
    </g>
    <g clip-path="url(#p39900bc09d)">
     <use xlink:href="#C5_0_0bfb6b4d10" x="474.958359" y="210.966334" style="fill: #bac3cc; fill-opacity: 0.55"/>
    </g>
    <g clip-path="url(#p39900bc09d)">
     <use xlink:href="#C5_0_0bfb6b4d10" x="476.32325" y="229.662649" style="fill: #bac3cc; fill-opacity: 0.55"/>
    </g>
    <g clip-path="url(#p39900bc09d)">
     <use xlink:href="#C5_0_0bfb6b4d10" x="477.688141" y="215.191769" style="fill: #bac3cc; fill-opacity: 0.55"/>
    </g>
    <g clip-path="url(#p39900bc09d)">
     <use xlink:href="#C5_0_0bfb6b4d10" x="479.053032" y="238.730474" style="fill: #bac3cc; fill-opacity: 0.55"/>
    </g>
    <g clip-path="url(#p39900bc09d)">
     <use xlink:href="#C5_0_0bfb6b4d10" x="480.417923" y="205.370411" style="fill: #bac3cc; fill-opacity: 0.55"/>
    </g>
    <g clip-path="url(#p39900bc09d)">
     <use xlink:href="#C5_0_0bfb6b4d10" x="481.782814" y="196.43086" style="fill: #bac3cc; fill-opacity: 0.55"/>
    </g>
    <g clip-path="url(#p39900bc09d)">
     <use xlink:href="#C5_0_0bfb6b4d10" x="483.147705" y="200.671148" style="fill: #bac3cc; fill-opacity: 0.55"/>
    </g>
    <g clip-path="url(#p39900bc09d)">
     <use xlink:href="#C5_0_0bfb6b4d10" x="484.512596" y="228.006736" style="fill: #bac3cc; fill-opacity: 0.55"/>
    </g>
    <g clip-path="url(#p39900bc09d)">
     <use xlink:href="#C5_0_0bfb6b4d10" x="485.877487" y="197.507689" style="fill: #bac3cc; fill-opacity: 0.55"/>
    </g>
    <g clip-path="url(#p39900bc09d)">
     <use xlink:href="#C5_0_0bfb6b4d10" x="487.242378" y="188.83478" style="fill: #bac3cc; fill-opacity: 0.55"/>
    </g>
    <g clip-path="url(#p39900bc09d)">
     <use xlink:href="#C5_0_0bfb6b4d10" x="488.60727" y="158.638334" style="fill: #bac3cc; fill-opacity: 0.55"/>
    </g>
    <g clip-path="url(#p39900bc09d)">
     <use xlink:href="#C5_0_0bfb6b4d10" x="489.972161" y="206.817518" style="fill: #bac3cc; fill-opacity: 0.55"/>
    </g>
    <g clip-path="url(#p39900bc09d)">
     <use xlink:href="#C5_0_0bfb6b4d10" x="491.337052" y="196.08047" style="fill: #bac3cc; fill-opacity: 0.55"/>
    </g>
    <g clip-path="url(#p39900bc09d)">
     <use xlink:href="#C5_0_0bfb6b4d10" x="492.701943" y="195.71169" style="fill: #bac3cc; fill-opacity: 0.55"/>
    </g>
    <g clip-path="url(#p39900bc09d)">
     <use xlink:href="#C5_0_0bfb6b4d10" x="494.066834" y="179.610054" style="fill: #bac3cc; fill-opacity: 0.55"/>
    </g>
    <g clip-path="url(#p39900bc09d)">
     <use xlink:href="#C5_0_0bfb6b4d10" x="495.431725" y="180.690785" style="fill: #bac3cc; fill-opacity: 0.55"/>
    </g>
   </g>
   <g id="patch_3">
    <path d="M 32.363188 279.63075 
L 32.363188 13.51875 
" style="fill: none; stroke: #243240; stroke-width: 0.8; stroke-linejoin: miter; stroke-linecap: square"/>
   </g>
   <g id="patch_4">
    <path d="M 32.363188 279.63075 
L 520.955188 279.63075 
" style="fill: none; stroke: #243240; stroke-width: 0.8; stroke-linejoin: miter; stroke-linecap: square"/>
   </g>
   <g id="PathCollection_7">
    <defs>
     <path id="m26cee8ef02" d="M 0 3.937004 
C 1.044106 3.937004 2.045588 3.522176 2.783882 2.783882 
C 3.522176 2.045588 3.937004 1.044106 3.937004 0 
C 3.937004 -1.044106 3.522176 -2.045588 2.783882 -2.783882 
C 2.045588 -3.522176 1.044106 -3.937004 0 -3.937004 
C -1.044106 -3.937004 -2.045588 -3.522176 -2.783882 -2.783882 
C -3.522176 -2.045588 -3.937004 -1.044106 -3.937004 0 
C -3.937004 1.044106 -3.522176 2.045588 -2.783882 2.783882 
C -2.045588 3.522176 -1.044106 3.937004 0 3.937004 
z
" style="stroke: #ffffff; stroke-width: 0.8"/>
    </defs>
    <g clip-path="url(#p39900bc09d)">
     <use xlink:href="#m26cee8ef02" x="54.571915" y="199.595328" style="fill: #999999; stroke: #ffffff; stroke-width: 0.8"/>
     <use xlink:href="#m26cee8ef02" x="60.538439" y="213.621353" style="fill: #999999; stroke: #ffffff; stroke-width: 0.8"/>
     <use xlink:href="#m26cee8ef02" x="66.504962" y="184.613644" style="fill: #999999; stroke: #ffffff; stroke-width: 0.8"/>
     <use xlink:href="#m26cee8ef02" x="72.471486" y="178.266205" style="fill: #999999; stroke: #ffffff; stroke-width: 0.8"/>
     <use xlink:href="#m26cee8ef02" x="78.43801" y="195.170099" style="fill: #999999; stroke: #ffffff; stroke-width: 0.8"/>
     <use xlink:href="#m26cee8ef02" x="84.404533" y="186.469784" style="fill: #999999; stroke: #ffffff; stroke-width: 0.8"/>
    </g>
   </g>
   <g id="PathCollection_8">
    <defs>
     <path id="m004b0e293a" d="M 0 3.937004 
C 1.044106 3.937004 2.045588 3.522176 2.783882 2.783882 
C 3.522176 2.045588 3.937004 1.044106 3.937004 0 
C 3.937004 -1.044106 3.522176 -2.045588 2.783882 -2.783882 
C 2.045588 -3.522176 1.044106 -3.937004 0 -3.937004 
C -1.044106 -3.937004 -2.045588 -3.522176 -2.783882 -2.783882 
C -3.522176 -2.045588 -3.937004 -1.044106 -3.937004 0 
C -3.937004 1.044106 -3.522176 2.045588 -2.783882 2.783882 
C -2.045588 3.522176 -1.044106 3.937004 0 3.937004 
z
" style="stroke: #ffffff; stroke-width: 0.8"/>
    </defs>
    <g clip-path="url(#p39900bc09d)">
     <use xlink:href="#m004b0e293a" x="137.4403" y="103.431498" style="fill: #56b4e9; stroke: #ffffff; stroke-width: 0.8"/>
     <use xlink:href="#m004b0e293a" x="143.406824" y="75.281818" style="fill: #56b4e9; stroke: #ffffff; stroke-width: 0.8"/>
     <use xlink:href="#m004b0e293a" x="149.373348" y="40.892362" style="fill: #56b4e9; stroke: #ffffff; stroke-width: 0.8"/>
     <use xlink:href="#m004b0e293a" x="155.339871" y="75.140375" style="fill: #56b4e9; stroke: #ffffff; stroke-width: 0.8"/>
     <use xlink:href="#m004b0e293a" x="161.306395" y="45.426977" style="fill: #56b4e9; stroke: #ffffff; stroke-width: 0.8"/>
     <use xlink:href="#m004b0e293a" x="167.272919" y="68.619034" style="fill: #56b4e9; stroke: #ffffff; stroke-width: 0.8"/>
    </g>
   </g>
   <g id="PathCollection_9">
    <defs>
     <path id="mbac5bf9749" d="M 0 3.937004 
C 1.044106 3.937004 2.045588 3.522176 2.783882 2.783882 
C 3.522176 2.045588 3.937004 1.044106 3.937004 0 
C 3.937004 -1.044106 3.522176 -2.045588 2.783882 -2.783882 
C 2.045588 -3.522176 1.044106 -3.937004 0 -3.937004 
C -1.044106 -3.937004 -2.045588 -3.522176 -2.783882 -2.783882 
C -3.522176 -2.045588 -3.937004 -1.044106 -3.937004 0 
C -3.937004 1.044106 -3.522176 2.045588 -2.783882 2.783882 
C -2.045588 3.522176 -1.044106 3.937004 0 3.937004 
z
" style="stroke: #ffffff; stroke-width: 0.8"/>
    </defs>
    <g clip-path="url(#p39900bc09d)">
     <use xlink:href="#mbac5bf9749" x="220.308685" y="97.06044" style="fill: #d55e00; stroke: #ffffff; stroke-width: 0.8"/>
     <use xlink:href="#mbac5bf9749" x="226.275209" y="115.66007" style="fill: #d55e00; stroke: #ffffff; stroke-width: 0.8"/>
     <use xlink:href="#mbac5bf9749" x="232.241733" y="61.617201" style="fill: #d55e00; stroke: #ffffff; stroke-width: 0.8"/>
     <use xlink:href="#mbac5bf9749" x="238.208257" y="68.465386" style="fill: #d55e00; stroke: #ffffff; stroke-width: 0.8"/>
     <use xlink:href="#mbac5bf9749" x="244.17478" y="77.946386" style="fill: #d55e00; stroke: #ffffff; stroke-width: 0.8"/>
     <use xlink:href="#mbac5bf9749" x="250.141304" y="94.960353" style="fill: #d55e00; stroke: #ffffff; stroke-width: 0.8"/>
    </g>
   </g>
   <g id="PathCollection_10">
    <defs>
     <path id="m272438854d" d="M 0 3.937004 
C 1.044106 3.937004 2.045588 3.522176 2.783882 2.783882 
C 3.522176 2.045588 3.937004 1.044106 3.937004 0 
C 3.937004 -1.044106 3.522176 -2.045588 2.783882 -2.783882 
C 2.045588 -3.522176 1.044106 -3.937004 0 -3.937004 
C -1.044106 -3.937004 -2.045588 -3.522176 -2.783882 -2.783882 
C -3.522176 -2.045588 -3.937004 -1.044106 -3.937004 0 
C -3.937004 1.044106 -3.522176 2.045588 -2.783882 2.783882 
C -2.045588 3.522176 -1.044106 3.937004 0 3.937004 
z
" style="stroke: #ffffff; stroke-width: 0.8"/>
    </defs>
    <g clip-path="url(#p39900bc09d)">
     <use xlink:href="#m272438854d" x="303.177071" y="216.574148" style="fill: #009e73; stroke: #ffffff; stroke-width: 0.8"/>
     <use xlink:href="#m272438854d" x="309.143595" y="236.811241" style="fill: #009e73; stroke: #ffffff; stroke-width: 0.8"/>
     <use xlink:href="#m272438854d" x="315.110118" y="184.742607" style="fill: #009e73; stroke: #ffffff; stroke-width: 0.8"/>
     <use xlink:href="#m272438854d" x="321.076642" y="237.386938" style="fill: #009e73; stroke: #ffffff; stroke-width: 0.8"/>
     <use xlink:href="#m272438854d" x="327.043166" y="213.575176" style="fill: #009e73; stroke: #ffffff; stroke-width: 0.8"/>
     <use xlink:href="#m272438854d" x="333.00969" y="185.629023" style="fill: #009e73; stroke: #ffffff; stroke-width: 0.8"/>
    </g>
   </g>
   <g id="PathCollection_11">
    <defs>
     <path id="m98a21ccfee" d="M 0 3.937004 
C 1.044106 3.937004 2.045588 3.522176 2.783882 2.783882 
C 3.522176 2.045588 3.937004 1.044106 3.937004 0 
C 3.937004 -1.044106 3.522176 -2.045588 2.783882 -2.783882 
C 2.045588 -3.522176 1.044106 -3.937004 0 -3.937004 
C -1.044106 -3.937004 -2.045588 -3.522176 -2.783882 -2.783882 
C -3.522176 -2.045588 -3.937004 -1.044106 -3.937004 0 
C -3.937004 1.044106 -3.522176 2.045588 -2.783882 2.783882 
C -2.045588 3.522176 -1.044106 3.937004 0 3.937004 
z
" style="stroke: #ffffff; stroke-width: 0.8"/>
    </defs>
    <g clip-path="url(#p39900bc09d)">
     <use xlink:href="#m98a21ccfee" x="386.045456" y="171.466007" style="fill: #cc79a7; stroke: #ffffff; stroke-width: 0.8"/>
     <use xlink:href="#m98a21ccfee" x="392.01198" y="193.407465" style="fill: #cc79a7; stroke: #ffffff; stroke-width: 0.8"/>
     <use xlink:href="#m98a21ccfee" x="397.978504" y="103.939741" style="fill: #cc79a7; stroke: #ffffff; stroke-width: 0.8"/>
     <use xlink:href="#m98a21ccfee" x="403.945027" y="170.645847" style="fill: #cc79a7; stroke: #ffffff; stroke-width: 0.8"/>
     <use xlink:href="#m98a21ccfee" x="409.911551" y="178.142049" style="fill: #cc79a7; stroke: #ffffff; stroke-width: 0.8"/>
     <use xlink:href="#m98a21ccfee" x="415.878075" y="141.035477" style="fill: #cc79a7; stroke: #ffffff; stroke-width: 0.8"/>
    </g>
   </g>
   <g id="PathCollection_12">
    <defs>
     <path id="m23f85e77b4" d="M 0 3.937004 
C 1.044106 3.937004 2.045588 3.522176 2.783882 2.783882 
C 3.522176 2.045588 3.937004 1.044106 3.937004 0 
C 3.937004 -1.044106 3.522176 -2.045588 2.783882 -2.783882 
C 2.045588 -3.522176 1.044106 -3.937004 0 -3.937004 
C -1.044106 -3.937004 -2.045588 -3.522176 -2.783882 -2.783882 
C -3.522176 -2.045588 -3.937004 -1.044106 -3.937004 0 
C -3.937004 1.044106 -3.522176 2.045588 -2.783882 2.783882 
C -2.045588 3.522176 -1.044106 3.937004 0 3.937004 
z
" style="stroke: #ffffff; stroke-width: 0.8"/>
    </defs>
    <g clip-path="url(#p39900bc09d)">
     <use xlink:href="#m23f85e77b4" x="468.913842" y="223.965904" style="fill: #f0e442; stroke: #ffffff; stroke-width: 0.8"/>
     <use xlink:href="#m23f85e77b4" x="474.880365" y="227.861631" style="fill: #f0e442; stroke: #ffffff; stroke-width: 0.8"/>
     <use xlink:href="#m23f85e77b4" x="480.846889" y="200.82414" style="fill: #f0e442; stroke: #ffffff; stroke-width: 0.8"/>
     <use xlink:href="#m23f85e77b4" x="486.813413" y="204.783069" style="fill: #f0e442; stroke: #ffffff; stroke-width: 0.8"/>
     <use xlink:href="#m23f85e77b4" x="492.779936" y="187.178774" style="fill: #f0e442; stroke: #ffffff; stroke-width: 0.8"/>
     <use xlink:href="#m23f85e77b4" x="498.74646" y="185.337509" style="fill: #f0e442; stroke: #ffffff; stroke-width: 0.8"/>
    </g>
   </g>
   <g id="text_14">
    <text style="font-size: 8px; font-family: 'DejaVu Sans', 'Arial', 'Helvetica'; text-anchor: middle; fill: #243240" x="276.659188" y="7.51875" transform="rotate(-0 276.659188 7.51875)">Technical curves in the background, day means in the foreground</text>
   </g>
   <g id="LineCollection_1">
    <path d="M 69.488224 202.795593 
L 69.488224 184.483808 
" clip-path="url(#p39900bc09d)" style="fill: none; stroke: #1f2d3a; stroke-width: 1.2"/>
   </g>
   <g id="line2d_17">
    <defs>
     <path id="m3d0ccd4731" d="M 3 0 
L -3 -0 
" style="stroke: #1f2d3a"/>
    </defs>
    <g clip-path="url(#p39900bc09d)">
     <use xlink:href="#m3d0ccd4731" x="69.488224" y="202.795593" style="fill: #1f2d3a; stroke: #1f2d3a"/>
    </g>
   </g>
   <g id="line2d_18">
    <g clip-path="url(#p39900bc09d)">
     <use xlink:href="#m3d0ccd4731" x="69.488224" y="184.483808" style="fill: #1f2d3a; stroke: #1f2d3a"/>
    </g>
   </g>
   <g id="LineCollection_2">
    <path d="M 152.356609 84.357277 
L 152.356609 52.33194 
" clip-path="url(#p39900bc09d)" style="fill: none; stroke: #1f2d3a; stroke-width: 1.2"/>
   </g>
   <g id="line2d_19">
    <g clip-path="url(#p39900bc09d)">
     <use xlink:href="#m3d0ccd4731" x="152.356609" y="84.357277" style="fill: #1f2d3a; stroke: #1f2d3a"/>
    </g>
   </g>
   <g id="line2d_20">
    <g clip-path="url(#p39900bc09d)">
     <use xlink:href="#m3d0ccd4731" x="152.356609" y="52.33194" style="fill: #1f2d3a; stroke: #1f2d3a"/>
    </g>
   </g>
   <g id="LineCollection_3">
    <path d="M 235.224995 100.894384 
L 235.224995 71.387302 
" clip-path="url(#p39900bc09d)" style="fill: none; stroke: #1f2d3a; stroke-width: 1.2"/>
   </g>
   <g id="line2d_21">
    <g clip-path="url(#p39900bc09d)">
     <use xlink:href="#m3d0ccd4731" x="235.224995" y="100.894384" style="fill: #1f2d3a; stroke: #1f2d3a"/>
    </g>
   </g>
   <g id="line2d_22">
    <g clip-path="url(#p39900bc09d)">
     <use xlink:href="#m3d0ccd4731" x="235.224995" y="71.387302" style="fill: #1f2d3a; stroke: #1f2d3a"/>
    </g>
   </g>
   <g id="LineCollection_4">
    <path d="M 318.09338 229.260184 
L 318.09338 195.148764 
" clip-path="url(#p39900bc09d)" style="fill: none; stroke: #1f2d3a; stroke-width: 1.2"/>
   </g>
   <g id="line2d_23">
    <g clip-path="url(#p39900bc09d)">
     <use xlink:href="#m3d0ccd4731" x="318.09338" y="229.260184" style="fill: #1f2d3a; stroke: #1f2d3a"/>
    </g>
   </g>
   <g id="line2d_24">
    <g clip-path="url(#p39900bc09d)">
     <use xlink:href="#m3d0ccd4731" x="318.09338" y="195.148764" style="fill: #1f2d3a; stroke: #1f2d3a"/>
    </g>
   </g>
   <g id="LineCollection_5">
    <path d="M 400.961766 180.86848 
L 400.961766 133.743793 
" clip-path="url(#p39900bc09d)" style="fill: none; stroke: #1f2d3a; stroke-width: 1.2"/>
   </g>
   <g id="line2d_25">
    <g clip-path="url(#p39900bc09d)">
     <use xlink:href="#m3d0ccd4731" x="400.961766" y="180.86848" style="fill: #1f2d3a; stroke: #1f2d3a"/>
    </g>
   </g>
   <g id="line2d_26">
    <g clip-path="url(#p39900bc09d)">
     <use xlink:href="#m3d0ccd4731" x="400.961766" y="133.743793" style="fill: #1f2d3a; stroke: #1f2d3a"/>
    </g>
   </g>
   <g id="LineCollection_6">
    <path d="M 483.830151 218.484003 
L 483.830151 192.12624 
" clip-path="url(#p39900bc09d)" style="fill: none; stroke: #1f2d3a; stroke-width: 1.2"/>
   </g>
   <g id="line2d_27">
    <g clip-path="url(#p39900bc09d)">
     <use xlink:href="#m3d0ccd4731" x="483.830151" y="218.484003" style="fill: #1f2d3a; stroke: #1f2d3a"/>
    </g>
   </g>
   <g id="line2d_28">
    <g clip-path="url(#p39900bc09d)">
     <use xlink:href="#m3d0ccd4731" x="483.830151" y="192.12624" style="fill: #1f2d3a; stroke: #1f2d3a"/>
    </g>
   </g>
   <g id="line2d_29">
    <defs>
     <path id="m2096e36e1d" d="M -0 4.596194 
L 4.596194 0 
L 0 -4.596194 
L -4.596194 -0 
z
" style="stroke: #1f2d3a; stroke-linejoin: miter"/>
    </defs>
    <g clip-path="url(#p39900bc09d)">
     <use xlink:href="#m2096e36e1d" x="69.488224" y="192.956069" style="fill: #ffffff; stroke: #1f2d3a; stroke-linejoin: miter"/>
    </g>
   </g>
   <g id="line2d_30">
    <g clip-path="url(#p39900bc09d)">
     <use xlink:href="#m2096e36e1d" x="152.356609" y="68.132011" style="fill: #ffffff; stroke: #1f2d3a; stroke-linejoin: miter"/>
    </g>
   </g>
   <g id="line2d_31">
    <g clip-path="url(#p39900bc09d)">
     <use xlink:href="#m2096e36e1d" x="235.224995" y="85.951639" style="fill: #ffffff; stroke: #1f2d3a; stroke-linejoin: miter"/>
    </g>
   </g>
   <g id="line2d_32">
    <g clip-path="url(#p39900bc09d)">
     <use xlink:href="#m2096e36e1d" x="318.09338" y="212.453189" style="fill: #ffffff; stroke: #1f2d3a; stroke-linejoin: miter"/>
    </g>
   </g>
   <g id="line2d_33">
    <g clip-path="url(#p39900bc09d)">
     <use xlink:href="#m2096e36e1d" x="400.961766" y="159.772764" style="fill: #ffffff; stroke: #1f2d3a; stroke-linejoin: miter"/>
    </g>
   </g>
   <g id="line2d_34">
    <g clip-path="url(#p39900bc09d)">
     <use xlink:href="#m2096e36e1d" x="483.830151" y="204.991838" style="fill: #ffffff; stroke: #1f2d3a; stroke-linejoin: miter"/>
    </g>
   </g>
  </g>
  <g id="text_15">
   <text style="font-size: 7.8px; font-family: 'DejaVu Sans', 'Arial', 'Helvetica'; text-anchor: middle; fill: #3a4753" x="245.771188" y="368.728594" transform="rotate(-0 245.771188 368.728594)">Grey points: technical curves. Colored circles: day means. Diamonds: mean of day means with bootstrap 95% CI.</text>
  </g>
 </g>
 <defs>
  <clipPath id="p39900bc09d">
   <rect x="32.363188" y="13.51875" width="488.592" height="266.112"/>
  </clipPath>
 </defs>
</svg>
